<svg width="14" height="14" viewBox="0 0 14 14" fill="none" xmlns="http://www.w3.org/2000/svg">
<g clip-path="url(#clip0_1222_41398)">
<path d="M0.5 12.5V1.5C0.5 1.23478 0.605357 0.98043 0.792893 0.792893C0.98043 0.605357 1.23478 0.5 1.5 0.5H12.5C12.7652 0.5 13.0196 0.605357 13.2071 0.792893C13.3946 0.98043 13.5 1.23478 13.5 1.5V12.5C13.5 12.7652 13.3946 13.0196 13.2071 13.2071C13.0196 13.3946 12.7652 13.5 12.5 13.5H9.5V8.76H10.21C10.3718 8.76 10.5269 8.69573 10.6413 8.58134C10.7557 8.46694 10.82 8.31178 10.82 8.15V7.38C10.82 7.29989 10.8042 7.22057 10.7736 7.14656C10.7429 7.07255 10.698 7.00531 10.6413 6.94866C10.5847 6.89202 10.5174 6.84709 10.4434 6.81643C10.3694 6.78578 10.2901 6.77 10.21 6.77H9.54V5.83C9.54 4.99 9.92 4.99 10.3 4.99H10.79C10.8705 4.99332 10.9507 4.97891 11.025 4.94781C11.0993 4.91671 11.1659 4.86966 11.22 4.81C11.2781 4.75468 11.3241 4.68789 11.3551 4.61388C11.3861 4.53986 11.4014 4.46023 11.4 4.38V3.64C11.4027 3.55857 11.3893 3.47741 11.3605 3.40117C11.3318 3.32492 11.2884 3.25508 11.2326 3.19564C11.1769 3.13621 11.11 3.08833 11.0358 3.05476C10.9616 3.02119 10.8814 3.00258 10.8 3H9.65C9.31445 2.98738 8.98016 3.04776 8.67021 3.17696C8.36027 3.30615 8.08207 3.50109 7.85483 3.7483C7.62758 3.99552 7.45671 4.28911 7.35401 4.60881C7.25131 4.92851 7.21924 5.26669 7.26 5.6V6.77H6.62C6.53906 6.76867 6.45866 6.78347 6.38349 6.81353C6.30832 6.84359 6.23989 6.88831 6.18219 6.94509C6.12448 7.00187 6.07865 7.06956 6.04737 7.14423C6.01609 7.2189 5.99999 7.29905 6 7.38V8.15C5.99999 8.23095 6.01609 8.3111 6.04737 8.38577C6.07865 8.46044 6.12448 8.52813 6.18219 8.58491C6.23989 8.64169 6.30832 8.68641 6.38349 8.71647C6.45866 8.74653 6.53906 8.76133 6.62 8.76H7.26V13.5H1.5C1.23478 13.5 0.98043 13.3946 0.792893 13.2071C0.605357 13.0196 0.5 12.7652 0.5 12.5Z" stroke="black" stroke-linecap="round" stroke-linejoin="round"/>
</g>
<defs>
<clipPath id="clip0_1222_41398">
<rect width="14" height="14" fill="white"/>
</clipPath>
</defs>
</svg>
