<svg width="14" height="14" viewBox="0 0 14 14" fill="none" xmlns="http://www.w3.org/2000/svg">
<g clip-path="url(#clip0_1222_41386)">
<path d="M10.3332 3.64404C10.1951 3.64404 10.0832 3.53211 10.0832 3.39404C10.0832 3.25597 10.1951 3.14404 10.3332 3.14404" stroke="black" stroke-linecap="round" stroke-linejoin="round"/>
<path d="M10.3332 3.64404C10.4713 3.64404 10.5832 3.53211 10.5832 3.39404C10.5832 3.25597 10.4713 3.14404 10.3332 3.14404" stroke="black" stroke-linecap="round" stroke-linejoin="round"/>
<path d="M0.858276 3.43141C0.858276 2.01038 2.01025 0.858398 3.43129 0.858398H10.2927C11.7137 0.858398 12.8657 2.01038 12.8657 3.43141V10.2928C12.8657 11.7138 11.7137 12.8658 10.2927 12.8658H3.43129C2.01025 12.8658 0.858276 11.7138 0.858276 10.2928V3.43141Z" stroke="black" stroke-linecap="round" stroke-linejoin="round"/>
<path d="M6.86201 9.41201C8.27034 9.41201 9.41201 8.27034 9.41201 6.86201C9.41201 5.45369 8.27034 4.31201 6.86201 4.31201C5.45369 4.31201 4.31201 5.45369 4.31201 6.86201C4.31201 8.27034 5.45369 9.41201 6.86201 9.41201Z" stroke="black" stroke-linecap="round" stroke-linejoin="round"/>
</g>
<defs>
<clipPath id="clip0_1222_41386">
<rect width="14" height="14" fill="white"/>
</clipPath>
</defs>
</svg>
