<svg width="14" height="12" viewBox="0 0 14 12" fill="none" xmlns="http://www.w3.org/2000/svg">
<path d="M4.00002 8.40002C3.28596 8.96089 2.46637 9.3724 1.59002 9.61C1.49349 9.6451 1.41009 9.709 1.35116 9.793C1.29222 9.8771 1.2606 9.9773 1.2606 10.08C1.2606 10.1827 1.29222 10.2829 1.35116 10.367C1.41009 10.4511 1.49349 10.515 1.59002 10.55C8.51002 13.39 12.91 9 12.24 4.13002L13.36 1.81002H12.06C10.44 -0.179977 6.14002 -0.079977 6.85002 4.16002C6.85002 4.16002 4.55002 4.57002 1.61002 1.68002C1.54201 1.61288 1.45618 1.56663 1.3627 1.54676C1.26922 1.52689 1.17201 1.53422 1.08257 1.56789C0.993129 1.60156 0.915212 1.66016 0.858046 1.73675C0.800881 1.81333 0.766862 1.9047 0.760017 2.00002C0.449149 3.27787 0.604721 4.62472 1.19872 5.79805C1.79272 6.97138 2.78611 7.89409 4.00002 8.40002Z" stroke="black" stroke-linecap="round" stroke-linejoin="round"/>
</svg>
